<svg xmlns="http://www.w3.org/2000/svg" width="18" height="18" viewBox="0 0 18 18"><g fill="#F7F7F7"><path fill-rule="evenodd" clip-rule="evenodd" d="M6.49899 6.87101C6.49899 5.905 7.54673 5.30636 8.37855 5.79096L12.0298 7.92011C12.857 8.40249 12.8571 9.59851 12.0298 10.0809L8.37882 12.2099C7.54699 12.6945 6.49899 12.096 6.49899 11.13V6.87101Z" fill="#F7F7F7"/><path fill-rule="evenodd" clip-rule="evenodd" d="M8.25 1.75C8.25 1.33579 8.58579 1 9 1C13.4182 1 17 4.58179 17 9C17 13.4182 13.4182 17 9 17C8.58579 17 8.25 16.6642 8.25 16.25C8.25 15.8358 8.58579 15.5 9 15.5C12.5898 15.5 15.5 12.5898 15.5 9C15.5 5.41021 12.5898 2.5 9 2.5C8.58579 2.5 8.25 2.16421 8.25 1.75Z" fill="#F7F7F7" fill-opacity="0.4"/><path d="M3.87299 14.877C4.28699 14.877 4.62299 14.5412 4.62299 14.127C4.62299 13.7128 4.28699 13.377 3.87299 13.377C3.45899 13.377 3.12299 13.7128 3.12299 14.127C3.12299 14.5412 3.45899 14.877 3.87299 14.877Z" fill="#F7F7F7" fill-opacity="0.4"/><path d="M1.75 9.75C2.164 9.75 2.5 9.4142 2.5 9C2.5 8.5858 2.164 8.25 1.75 8.25C1.336 8.25 1 8.5858 1 9C1 9.4142 1.336 9.75 1.75 9.75Z" fill="#F7F7F7" fill-opacity="0.4"/><path d="M3.87299 4.623C4.28699 4.623 4.62299 4.2872 4.62299 3.873C4.62299 3.4588 4.28699 3.123 3.87299 3.123C3.45899 3.123 3.12299 3.4588 3.12299 3.873C3.12299 4.2872 3.45899 4.623 3.87299 4.623Z" fill="#F7F7F7" fill-opacity="0.4"/><path d="M6.22601 16.448C6.64001 16.448 6.97601 16.1122 6.97601 15.698C6.97601 15.2838 6.64001 14.948 6.22601 14.948C5.81201 14.948 5.47601 15.2838 5.47601 15.698C5.47601 16.1122 5.81201 16.448 6.22601 16.448Z" fill="#F7F7F7" fill-opacity="0.4"/><path d="M2.302 12.524C2.716 12.524 3.052 12.1882 3.052 11.774C3.052 11.3598 2.716 11.024 2.302 11.024C1.888 11.024 1.552 11.3598 1.552 11.774C1.552 12.1882 1.888 12.524 2.302 12.524Z" fill="#F7F7F7" fill-opacity="0.4"/><path d="M2.302 6.976C2.716 6.976 3.052 6.6402 3.052 6.226C3.052 5.8118 2.716 5.476 2.302 5.476C1.888 5.476 1.552 5.8118 1.552 6.226C1.552 6.6402 1.888 6.976 2.302 6.976Z" fill="#F7F7F7" fill-opacity="0.4"/><path d="M6.22601 3.052C6.64001 3.052 6.97601 2.7162 6.97601 2.302C6.97601 1.8878 6.64001 1.552 6.22601 1.552C5.81201 1.552 5.47601 1.8878 5.47601 2.302C5.47601 2.7162 5.81201 3.052 6.22601 3.052Z" fill="#F7F7F7" fill-opacity="0.4"/></g></svg>
