<svg xmlns="http://www.w3.org/2000/svg" width="24" height="24" viewBox="0 0 24 24"><g fill="#F7F7F7"><path d="M10 13C10.5523 13 11 12.5523 11 12C11 11.4477 10.5523 11 10 11C9.44772 11 9 11.4477 9 12C9 12.5523 9.44772 13 10 13Z" fill="#F7F7F7"/><path fill-rule="evenodd" clip-rule="evenodd" d="M20 3C21.6569 3 23 4.34315 23 6V18C23 19.6569 21.6569 21 20 21H4C2.34314 21 1 19.6569 1 18V6C1 4.34315 2.34315 3 4 3H20ZM10 7C7.23858 7 5 9.23858 5 12C5 14.7614 7.23858 17 10 17C12.7614 17 15 14.7614 15 12C15 9.23858 12.7614 7 10 7ZM19 12V17H17V12H19ZM19 7H17V10H19V7Z" fill="#F7F7F7"/></g></svg>
