<svg xmlns="http://www.w3.org/2000/svg" width="18" height="18" viewBox="0 0 18 18"><g fill="#F7F7F7"><path fill-rule="evenodd" clip-rule="evenodd" d="M9.52921 14.2499C9.23746 13.9576 8.76268 13.957 8.46933 14.2503C8.17643 14.5432 7.70156 14.5432 7.40867 14.2503C7.11577 13.9574 7.11577 13.4826 7.40867 13.1897C8.28731 12.311 9.71253 12.3104 10.5908 13.1901C10.8834 13.4833 10.883 13.9581 10.5899 14.2508C10.2967 14.5434 9.82186 14.543 9.52921 14.2499Z" fill="#F7F7F7"/><path fill-rule="evenodd" clip-rule="evenodd" d="M11.6517 12.1283C10.1876 10.6642 7.81243 10.6642 6.34832 12.1283C6.05543 12.4212 5.58055 12.4212 5.28766 12.1283C4.99477 11.8354 4.99477 11.3606 5.28766 11.0677C7.33756 9.01779 10.6624 9.01779 12.7123 11.0677C13.0052 11.3606 13.0052 11.8354 12.7123 12.1283C12.4194 12.4212 11.9446 12.4212 11.6517 12.1283Z" fill="#F7F7F7" fill-opacity="0.4"/><path fill-rule="evenodd" clip-rule="evenodd" d="M13.7737 10.0073C11.1376 7.37123 6.86343 7.37123 4.22732 10.0073C3.93443 10.3002 3.45955 10.3002 3.16666 10.0073C2.87377 9.71445 2.87377 9.23957 3.16666 8.94668C6.38855 5.72478 11.6124 5.72478 14.8343 8.94668C15.1272 9.23957 15.1272 9.71445 14.8343 10.0073C14.5414 10.3002 14.0666 10.3002 13.7737 10.0073Z" fill="#F7F7F7"/><path fill-rule="evenodd" clip-rule="evenodd" d="M15.8936 7.88627C12.0866 4.07829 5.91348 4.0782 2.10534 7.88634C1.81245 8.17923 1.33758 8.17923 1.04468 7.88634C0.751789 7.59344 0.751789 7.11857 1.04468 6.82568C5.43854 2.43182 12.5615 2.43173 16.9544 6.82574C17.2473 7.11867 17.2472 7.59355 16.9543 7.8864C16.6613 8.17926 16.1865 8.1792 15.8936 7.88627Z" fill="#F7F7F7" fill-opacity="0.4"/></g></svg>
